<svg width="101" height="100" viewBox="0 0 101 100" fill="none" xmlns="http://www.w3.org/2000/svg">
<path d="M49.5821 6.62111C48.254 7.10939 47.1212 7.91017 45.8712 9.21877C44.5821 10.6055 43.8204 11.7969 42.1993 15.0391C40.5391 18.3789 39.4844 19.8438 37.961 20.9961C36.4962 22.0899 35.8907 22.4219 31.1055 24.6485C26.6329 26.7188 24.6602 27.8711 23.0782 29.3164L21.8672 30.4297L21.3008 29.961C16.9649 26.4844 10.1094 29.2383 7.70709 35.4297C6.49615 38.5547 5.01178 44.8828 4.30865 49.9024C3.29303 57.2656 3.41022 64.668 4.60162 68.2813C5.51959 71.0352 7.49225 73.3985 9.836 74.5508C11.1251 75.1953 11.4376 75.2735 12.8047 75.2735C14.1719 75.2735 14.504 75.1953 15.7735 74.5508L17.2188 73.8477L18.918 75.4883C21.7696 78.2422 25.2852 80.3516 29.1524 81.6211C31.6524 82.461 33.4493 82.7735 36.5352 82.9297C41.0469 83.1445 42.1993 83.5547 47.4141 86.836C52.9024 90.2539 58.6055 92.7149 62.8829 93.457C65.168 93.8477 68.5665 93.8477 70.2071 93.4375C72.9219 92.7539 74.9141 91.3672 75.8126 89.5313C76.2813 88.5742 76.3204 88.3008 76.2422 86.8555C76.1641 85.332 75.8321 84.3555 74.7774 82.4024C74.7383 82.3438 75.6172 82.2266 76.711 82.168C82.0821 81.836 85.9493 79.8633 87.5313 76.6406C88.0196 75.6445 88.0977 75.2539 88.0977 73.8281C88.0977 72.4024 88.0196 72.0117 87.5313 71.0156C86.9063 69.7461 85.4024 68.1445 83.879 67.1094L82.8829 66.4453L83.4493 66.3477C83.7422 66.2891 84.5235 66.1719 85.168 66.1133C87.0821 65.8985 89.7969 65.1172 91.4376 64.3164C93.3516 63.3985 95.5001 61.3672 96.2618 59.7656C97.3751 57.461 97.7071 54.375 97.0626 52.3828C96.1251 49.4922 92.8243 47.2461 87.5313 45.918L85.4024 45.3711L86.2618 44.7656C86.7501 44.4531 87.4727 43.8086 87.8829 43.3594C90.3243 40.6446 90.5391 35.7813 88.3712 32.3828C86.9844 30.2344 84.3282 28.4961 81.418 27.8516C79.1915 27.3633 76.3204 27.4805 67.4337 28.418C58.293 29.375 54.9337 29.6875 54.836 29.6094C54.8165 29.5703 55.5001 28.5938 56.379 27.4219C60.6563 21.6797 61.6915 16.2305 59.4258 11.4258C58.5274 9.53127 56.8868 7.79298 55.2266 6.9922C54.1133 6.44533 53.6837 6.34767 52.2579 6.28908C51.0079 6.25002 50.3438 6.32814 49.5821 6.62111ZM53.7813 10.1758C55.4024 10.9766 56.8282 13.3985 57.0626 15.8008C57.2188 17.5 56.6915 19.961 55.7735 21.836C55.3243 22.7344 54.0157 24.7266 52.8438 26.2695C51.6719 27.8125 50.4024 29.6485 50.0118 30.3711C49.0157 32.1289 48.1172 34.7656 47.3946 37.9297C46.6133 41.4453 46.0079 42.6172 43.9766 44.6289C41.4376 47.1485 39.1524 48.0469 35.1485 48.0469C33.254 48.0469 32.9415 48.086 32.5704 48.4375C31.6329 49.3164 31.8868 50.8008 33.0391 51.2891C33.918 51.6602 37.0626 51.6406 38.9376 51.25C42.9024 50.4492 46.3204 48.1055 48.6251 44.6485C49.6212 43.125 50.2462 41.543 50.7149 39.2969C51.1837 36.9727 51.5547 35.5664 52.1016 34.2188L52.4922 33.2031H53.7032C55.2266 33.2031 59.543 32.793 67.6876 31.8946C75.6368 31.0156 80.0313 30.8985 81.7891 31.5625C84.836 32.7344 86.3204 34.7656 86.3204 37.8125C86.3008 41.211 84.1915 42.7735 77.9024 44.0235C75.8712 44.4336 74.8165 44.5313 72.2383 44.5313C67.6876 44.5313 62.8633 45.0977 61.8282 45.7617C60.9688 46.2891 60.8126 47.5586 61.4962 48.3594C62.0626 49.0235 62.5899 49.043 65.1485 48.5352C66.7501 48.2031 67.9024 48.1446 73.4493 48.1446C80.0508 48.1446 81.5743 48.2617 85.4219 49.043C89.7579 49.9219 92.6485 51.3867 93.586 53.1641C93.9571 53.8672 93.9376 55.7422 93.5469 57.0313C92.9415 59.043 91.7696 60.293 89.504 61.3281C86.8868 62.5 84.0938 62.8906 78.3907 62.8906C74.4844 62.8906 74.2501 62.8711 72.2579 62.3047C68.293 61.1914 62.8829 60.332 58.2149 60.0391C56.0665 59.9219 56.0469 59.9219 55.4219 60.4492C54.9337 60.8594 54.7969 61.1133 54.7969 61.6797C54.8165 63.0664 55.3829 63.3789 58.1172 63.5547C69.1915 64.2774 80.3047 67.7735 83.6837 71.6016C85.9102 74.1406 84.1915 76.9727 79.6797 78.2227C78.2149 78.6328 73.8399 78.8281 72.1797 78.5547C71.1446 78.3789 70.4805 78.086 68.5665 76.9336C65.5977 75.1367 62.3165 73.5547 58.1563 71.9336C54.3868 70.4688 53.6055 70.3516 52.9219 71.1524C52.3555 71.8164 52.2969 72.832 52.8047 73.3985C52.9805 73.6328 54.5821 74.3555 56.4962 75.0977C63.3126 77.6953 68.1563 80.3516 70.4024 82.7149C72.7462 85.1953 73.4102 87.4024 72.1797 88.6524C71.2032 89.6094 69.6602 90.0977 67.1602 90.1953C62.3165 90.3711 56.3399 88.2617 49.3477 83.8867C43.6837 80.332 42.1602 79.7852 37.3555 79.4727C35.6563 79.375 33.6446 79.1602 32.8829 79.0039C26.6719 77.6953 20.5977 73.5352 18.3321 69.043C17.6485 67.7149 17.336 66.543 17.1212 64.6094C16.9258 62.8516 16.9649 62.1289 17.4141 59.2383C17.5313 58.4961 17.4727 58.3594 16.9454 57.8125C16.5157 57.3828 16.1641 57.2266 15.6954 57.2266C14.4063 57.2461 13.918 58.1055 13.6055 60.9766C13.3126 63.5352 13.6055 66.3477 14.3868 68.5547C15.168 70.7813 15.168 70.8985 14.3868 71.3672C12.3751 72.5586 9.79694 71.1524 8.31256 68.0664C6.14459 63.5547 7.06256 49.4141 10.1876 39.1016C11.0274 36.3477 11.6133 35.1758 12.7462 33.9649C14.8751 31.6797 18.0391 31.3281 19.7188 33.1836C20.0313 33.5352 20.0508 33.6914 19.8555 34.4531C19.3477 36.4844 19.8751 37.6953 21.2422 37.6953C22.2579 37.6953 22.7071 37.2461 23.1563 35.7813C24.2305 32.168 25.6368 31.0547 33.7032 27.3633C40.6954 24.1406 42.5899 22.3438 45.7344 15.9766C47.2579 12.8516 48.4297 11.2891 49.9141 10.3906C51.2032 9.62892 52.4727 9.5508 53.7813 10.1758Z" fill="black"/>
</svg>
