<?xml version="1.0" encoding="utf-8"?>
<svg xmlns="http://www.w3.org/2000/svg" viewBox="163.0671 125.5623 93.7687 87.4676" width="93.7687px" height="87.4676px">
  <path d="M 209.029 125.904 C 207.701 126.392 206.568 127.193 205.318 128.501 C 204.029 129.888 203.267 131.079 201.646 134.322 C 199.986 137.661 198.931 139.126 197.408 140.279 C 195.943 141.372 195.337 141.704 190.552 143.931 C 186.08 146.001 184.107 147.154 182.525 148.599 L 181.314 149.712 L 180.748 149.243 C 176.412 145.767 169.556 148.521 167.154 154.712 C 165.943 157.837 164.459 164.165 163.755 169.185 C 162.74 176.548 162.857 183.95 164.048 187.564 C 164.966 190.318 166.939 192.681 169.283 193.833 C 170.572 194.478 170.884 194.556 172.251 194.556 C 173.619 194.556 173.951 194.478 175.22 193.833 L 176.666 193.13 L 178.365 194.771 C 181.216 197.525 184.732 199.634 188.599 200.904 C 191.099 201.743 192.896 202.056 195.982 202.212 C 200.494 202.427 201.646 202.837 206.861 206.118 C 212.349 209.536 218.052 211.997 222.33 212.739 C 224.615 213.13 228.013 213.13 229.654 212.72 C 232.369 212.036 234.361 210.65 235.259 208.814 C 235.728 207.857 235.767 207.583 235.689 206.138 C 235.611 204.614 235.279 203.638 234.224 201.685 C 234.185 201.626 235.064 201.509 236.158 201.45 C 241.529 201.118 245.396 199.146 246.978 195.923 C 247.466 194.927 247.544 194.536 247.544 193.111 C 247.544 191.685 247.466 191.294 246.978 190.298 C 246.353 189.029 244.849 187.427 243.326 186.392 L 242.33 185.728 L 242.896 185.63 C 243.189 185.572 243.97 185.454 244.615 185.396 C 246.529 185.181 249.244 184.4 250.884 183.599 C 252.798 182.681 254.947 180.65 255.709 179.048 C 256.822 176.743 257.154 173.657 256.509 171.665 C 255.572 168.775 252.271 166.529 246.978 165.2 L 244.849 164.654 L 245.709 164.048 C 246.197 163.736 246.919 163.091 247.33 162.642 C 249.771 159.927 249.986 155.064 247.818 151.665 C 246.431 149.517 243.775 147.779 240.865 147.134 C 238.638 146.646 235.767 146.763 226.88 147.7 C 217.74 148.657 214.38 148.97 214.283 148.892 C 214.263 148.853 214.947 147.876 215.826 146.704 C 220.103 140.962 221.138 135.513 218.873 130.708 C 217.974 128.814 216.334 127.075 214.673 126.275 C 213.56 125.728 213.13 125.63 211.705 125.572 C 210.455 125.532 209.791 125.611 209.029 125.904 Z M 213.228 129.458 C 214.849 130.259 216.275 132.681 216.509 135.083 C 216.666 136.782 216.138 139.243 215.22 141.118 C 214.771 142.017 213.462 144.009 212.291 145.552 C 211.119 147.095 209.849 148.931 209.459 149.654 C 208.462 151.411 207.564 154.048 206.841 157.212 C 206.06 160.728 205.455 161.9 203.423 163.911 C 200.884 166.431 198.599 167.329 194.595 167.329 C 192.701 167.329 192.388 167.368 192.017 167.72 C 191.08 168.599 191.334 170.083 192.486 170.572 C 193.365 170.943 196.509 170.923 198.384 170.532 C 202.349 169.732 205.767 167.388 208.072 163.931 C 209.068 162.407 209.693 160.825 210.162 158.579 C 210.63 156.255 211.001 154.849 211.548 153.501 L 211.939 152.486 L 213.15 152.486 C 214.673 152.486 218.99 152.075 227.134 151.177 C 235.084 150.298 239.478 150.181 241.236 150.845 C 244.283 152.017 245.767 154.048 245.767 157.095 C 245.748 160.493 243.638 162.056 237.349 163.306 C 235.318 163.716 234.263 163.814 231.685 163.814 C 227.134 163.814 222.31 164.38 221.275 165.044 C 220.416 165.572 220.259 166.841 220.943 167.642 C 221.509 168.306 222.037 168.325 224.595 167.818 C 226.197 167.486 227.349 167.427 232.896 167.427 C 239.498 167.427 241.021 167.544 244.869 168.325 C 249.205 169.204 252.095 170.669 253.033 172.447 C 253.404 173.15 253.384 175.025 252.994 176.314 C 252.388 178.325 251.216 179.575 248.951 180.611 C 246.334 181.782 243.541 182.173 237.837 182.173 C 233.931 182.173 233.697 182.154 231.705 181.587 C 227.74 180.474 222.33 179.614 217.662 179.322 C 215.513 179.204 215.494 179.204 214.869 179.732 C 214.38 180.142 214.244 180.396 214.244 180.962 C 214.263 182.349 214.83 182.661 217.564 182.837 C 228.638 183.56 239.751 187.056 243.13 190.884 C 245.357 193.423 243.638 196.255 239.126 197.505 C 237.662 197.915 233.287 198.111 231.626 197.837 C 230.591 197.661 229.927 197.368 228.013 196.216 C 225.044 194.419 221.763 192.837 217.603 191.216 C 213.834 189.751 213.052 189.634 212.369 190.435 C 211.802 191.099 211.744 192.114 212.251 192.681 C 212.427 192.915 214.029 193.638 215.943 194.38 C 222.759 196.978 227.603 199.634 229.849 201.997 C 232.193 204.478 232.857 206.685 231.626 207.935 C 230.65 208.892 229.107 209.38 226.607 209.478 C 221.763 209.654 215.787 207.544 208.794 203.169 C 203.13 199.614 201.607 199.068 196.802 198.755 C 195.103 198.657 193.091 198.443 192.33 198.286 C 186.119 196.978 180.044 192.818 177.779 188.325 C 177.095 186.997 176.783 185.825 176.568 183.892 C 176.373 182.134 176.412 181.411 176.861 178.521 C 176.978 177.779 176.919 177.642 176.392 177.095 C 175.962 176.665 175.611 176.509 175.142 176.509 C 173.853 176.529 173.365 177.388 173.052 180.259 C 172.759 182.818 173.052 185.63 173.834 187.837 C 174.615 190.064 174.615 190.181 173.834 190.65 C 171.822 191.841 169.244 190.435 167.759 187.349 C 165.591 182.837 166.509 168.697 169.634 158.384 C 170.474 155.63 171.06 154.458 172.193 153.247 C 174.322 150.962 177.486 150.611 179.166 152.466 C 179.478 152.818 179.498 152.974 179.302 153.736 C 178.794 155.767 179.322 156.978 180.689 156.978 C 181.705 156.978 182.154 156.529 182.603 155.064 C 183.677 151.45 185.084 150.337 193.15 146.646 C 200.142 143.423 202.037 141.626 205.181 135.259 C 206.705 132.134 207.876 130.572 209.361 129.673 C 210.65 128.911 211.919 128.833 213.228 129.458 Z" fill="black" style="stroke-width: 1;" transform="matrix(0.9999999999999999, 0, 0, 0.9999999999999999, 0, -1.4210854715202004e-14)"/>
</svg>