<?xml version="1.0" encoding="utf-8"?>
<svg xmlns="http://www.w3.org/2000/svg" viewBox="318.0564 179.3552 73.7188 71.7458" width="73.7188px" height="71.7458px">
  <path d="M 340.833 250.84 C 334.485 249.687 330.286 245.039 330.267 239.18 L 330.267 237.851 L 329.446 237.851 C 326.81 237.832 323.333 236.387 321.478 234.531 C 320.208 233.262 319.095 231.23 318.743 229.512 C 318.607 228.847 318.548 227.617 318.607 226.523 C 318.704 224.414 319.173 222.988 320.228 221.445 C 320.989 220.332 321.009 220.234 320.56 219.863 C 320.052 219.433 319.036 217.734 318.548 216.465 C 318.001 215.039 317.884 211.797 318.333 210.215 C 318.939 208.027 320.423 205.644 321.985 204.297 C 322.806 203.613 322.845 203.515 322.65 203.008 C 322.552 202.715 322.357 201.855 322.239 201.113 C 321.556 196.64 324.329 192.07 328.743 190.371 C 329.798 189.98 329.857 189.922 329.72 189.433 C 329.446 188.418 329.603 186.035 330.052 184.726 C 330.853 182.344 332.474 180.703 334.935 179.824 C 336.185 179.375 336.36 179.355 342.571 179.355 C 349.271 179.375 351.849 179.551 356.732 180.332 C 368.001 182.148 375.228 186.191 378.333 192.461 C 379.095 193.984 379.427 194.472 379.642 194.394 C 384.095 192.695 388.45 195.957 390.306 202.383 C 391.614 206.875 392.064 213.086 391.595 219.785 C 391.126 226.152 389.818 230.43 387.532 232.969 C 385.345 235.41 382.259 236.094 379.564 234.726 C 379.153 234.512 378.763 234.336 378.704 234.336 C 378.626 234.336 378.177 234.98 377.669 235.762 C 375.403 239.355 371.146 242.265 366.107 243.691 C 365.228 243.945 362.298 245.234 359.368 246.64 C 353.841 249.336 351.185 250.332 348.255 250.82 C 346.048 251.191 342.825 251.191 340.833 250.84 Z M 347.454 247.422 C 349.935 247.031 353.021 245.879 357.786 243.515 C 360.794 242.012 363.333 240.918 364.954 240.371 C 370.482 238.574 373.665 236.23 375.364 232.734 C 376.36 230.683 376.575 229.492 376.517 226.426 C 376.458 223.398 376.575 222.988 377.552 222.637 C 378.001 222.48 378.294 222.5 378.802 222.695 C 379.876 223.144 379.974 223.515 379.993 227.285 L 380.032 230.703 L 380.54 231.152 C 382.357 232.695 384.681 231.719 386.126 228.789 C 387.376 226.25 388.001 222.578 388.196 216.758 C 388.47 208.75 387.239 202.09 384.954 199.199 C 383.997 197.988 382.708 197.324 381.673 197.519 C 380.228 197.773 380.15 197.93 379.993 200.39 C 379.759 204.375 379.427 205.137 377.903 205.137 C 377.259 205.137 377.005 205.019 376.614 204.57 C 376.165 204.023 376.146 203.926 376.302 202.617 C 376.536 200.644 376.478 197.89 376.185 196.64 C 376.048 196.055 375.579 194.824 375.15 193.945 C 371.614 186.699 359.915 182.793 341.79 182.773 C 337.239 182.773 336.087 182.949 334.876 183.769 C 333.138 184.961 332.552 187.89 333.646 189.98 C 334.29 191.23 334.31 191.972 333.724 192.656 C 333.353 193.086 333.06 193.183 331.829 193.32 C 330.052 193.496 328.782 194.062 327.61 195.215 C 325.579 197.168 325.13 199.863 326.341 202.734 C 327.122 204.609 327.044 205.058 325.657 205.976 C 322.767 207.91 321.243 210.762 321.556 213.691 C 321.732 215.488 322.454 216.836 324.036 218.34 C 325.208 219.472 325.384 219.726 325.384 220.351 C 325.384 220.937 325.208 221.211 324.251 222.168 C 322.689 223.73 322.2 224.824 322.103 226.914 C 322.005 228.984 322.474 230.351 323.724 231.738 C 326.497 234.844 331.712 235.195 339.075 232.793 C 340.95 232.187 341.673 232.031 342.005 232.168 C 343.275 232.656 343.646 234.219 342.689 235.058 C 342.064 235.586 337.943 236.933 335.501 237.402 L 333.724 237.734 L 333.821 239.433 C 334.036 243.222 336.38 246.015 340.228 247.109 C 340.814 247.265 341.575 247.441 341.888 247.48 C 343.099 247.637 346.224 247.597 347.454 247.422 Z" fill="black" style="stroke-width: 1; transform-origin: 354.916px 215.228px;" transform="matrix(-1, 0, 0, -1, 0, 0.00003052)"/>
</svg>