<svg width="101" height="100" viewBox="0 0 101 100" fill="none" xmlns="http://www.w3.org/2000/svg">
<g clip-path="url(#clip0_2657_12)">
<path d="M57.7421 14.082C60.3007 14.3164 65.0663 15.1758 67.9179 15.9375C72.039 17.0117 74.9687 18.2422 77.8007 20.0781C79.1484 20.9765 82.332 23.9648 83.1132 25.0781L83.5234 25.664L84.1484 25.1172C85.496 23.9843 86.6484 23.5547 88.3476 23.5547C89.6952 23.5351 90.0859 23.6132 91.1992 24.1406C96.1992 26.5234 99.1679 34.5898 99.9882 48.0468C100.535 57.207 99.0898 64.0039 95.8476 67.4804C94.1484 69.2968 92.9765 69.8242 90.6913 69.8242C89.1484 69.8242 88.7968 69.7461 87.8007 69.2578C87.1757 68.9648 86.6484 68.75 86.6093 68.7695C86.5898 68.8086 86.1406 69.4922 85.6327 70.2734C81.2382 76.9531 72.4492 81.6406 64.2851 81.6406H62.039L60.8281 82.5586C59.4413 83.5937 56.6484 84.9804 54.9492 85.4492C53.1718 85.9375 48.8163 86.0742 47.2343 85.664C43.582 84.7461 40.8281 82.4023 39.871 79.375L39.5585 78.3789L38.0351 78.0468C35.0859 77.4219 32.1562 75.4883 30.7695 73.3008C28.9726 70.4687 29.0312 66.7187 30.9257 63.5937C31.2968 62.9687 31.5898 62.4218 31.5703 62.4023C31.5312 62.3828 30.2421 62.5 28.6796 62.6367C24.3242 63.0468 16.0234 63.0273 13.1523 62.6172C8.44524 61.9336 6.06243 61.0742 4.18743 59.3554C0.359306 55.8593 0.593681 49.082 4.65618 44.9414C7.05853 42.5 10.164 41.5039 16.6679 41.0547L18.621 40.9179L17.4687 40.3711C14.4804 38.9843 11.6093 36.5429 10.457 34.414C8.09368 30.039 10.1054 24.0625 14.7734 21.6211C19.9882 18.8672 29.2656 19.3164 39.7734 22.8125L41.9609 23.5547L42.7421 21.9726C45.5546 16.1328 50.6913 13.4375 57.7421 14.082ZM52.6054 17.8906C49.2265 18.7109 47.0195 20.7617 45.3984 24.5703C44.5195 26.6601 43.5624 28.0078 40.7109 31.1523C37.1757 35.039 37.0781 35.3711 39.0507 37.1875C42.0195 39.9414 46.1601 40.8203 49.2656 39.375C52.2734 37.9883 55.4765 34.1601 55.9257 31.3867C56.121 30.3125 56.7851 29.6875 57.7421 29.6875C58.9335 29.6875 59.4023 30.332 59.4609 31.9922C59.4999 33.6718 59.6757 34.4336 60.2617 35.6445C61.6288 38.3203 64.207 40.0781 67.5859 40.6054C68.5234 40.7617 68.914 40.9375 69.246 41.3086C69.8906 42.0312 69.832 42.8711 69.0898 43.5937C68.5234 44.1797 68.4648 44.1992 67.1757 44.0625C63.5429 43.7304 59.8124 41.5234 57.8593 38.5156C57.4687 37.9101 57.0976 37.3633 57.0585 37.3242C57.0195 37.2656 56.8437 37.4414 56.6679 37.7148C55.3984 39.5312 52.8593 41.582 50.6523 42.5976C49.6757 43.0468 49.3827 43.2422 49.5585 43.4179C49.9296 43.789 49.8124 44.8633 49.3046 45.4492L48.8163 45.9961L46.2187 45.957C44.7929 45.9179 40.8867 45.6836 37.5663 45.4101C28.582 44.6875 25.5156 44.5312 20.8085 44.5312C14.6757 44.5312 11.0624 45.0195 8.83587 46.1328C6.27728 47.4023 4.53899 50.957 5.06634 53.8672C5.7304 57.4609 8.60149 58.8281 16.6874 59.3945C20.3398 59.6484 25.3007 59.4531 32.1562 58.7695L36.1796 58.3593L37.6445 57.4804C40.6132 55.664 44.3632 54.1406 48.1132 53.1836C50.7499 52.539 55.1054 52.3437 57.0781 52.8125C59.0312 53.2812 60.5546 54.1601 61.9023 55.6445C64.4218 58.3984 65.164 61.289 64.1484 64.3359L63.621 65.8789L64.5976 66.875C67.0976 69.414 67.4296 72.9492 65.5351 76.7969L64.8906 78.125H65.5546C66.7265 78.125 70.1054 77.3437 71.9218 76.6406C72.8984 76.2695 74.4023 75.5664 75.2617 75.0586C83.0546 70.5859 86.7265 63.3984 85.1249 55.7031C84.8906 54.4922 84.8124 53.7109 84.9296 53.4179C85.3398 52.3242 86.9218 51.9726 87.7421 52.8125C88.5429 53.5937 88.9335 55.8593 88.914 59.375C88.914 61.7578 88.8163 62.6953 88.5038 63.8281C88.0742 65.4101 88.0937 65.4492 89.3632 66.0937C90.7109 66.7773 92.2734 66.3476 93.4452 64.9609C96.3359 61.582 97.2734 53.2226 95.9452 42.539C94.9492 34.4531 92.6249 28.75 89.7538 27.3633C88.3281 26.6797 87.2538 26.914 86.2187 28.125C85.5742 28.9062 85.5742 29.1601 86.3163 31.2109C87.4101 34.3164 88.2304 38.7304 88.2499 41.5429C88.2499 42.6367 88.2109 42.7734 87.6445 43.2422C86.9609 43.8281 86.5117 43.8672 85.7109 43.457C85.0273 43.1054 84.8124 42.4414 84.6367 40.2343C84.2851 35.8008 83.0742 31.6015 81.2968 28.6718C77.8984 23.0859 72.0195 19.9609 61.6093 18.164C57.0195 17.3828 54.9687 17.3242 52.6054 17.8906ZM18.7968 23.8281C15.4179 24.6875 13.621 26.4648 13.0546 29.4531C12.0195 35.0195 20.2812 39.3945 35.9453 41.582C39.9101 42.1484 39.8906 42.1484 38.1718 41.0156C35.1054 38.9648 33.8359 36.7187 34.3437 34.2578C34.6367 32.8711 35.6523 31.3867 38.0351 28.8476C39.1093 27.6758 40.0077 26.6992 40.0077 26.6601C40.0077 26.5234 35.8476 25.2343 33.7578 24.7265C27.7031 23.2617 22.2734 22.9492 18.7968 23.8281ZM49.7929 56.4453C47.1367 56.9922 45.2031 57.6562 42.371 59.0039C37.9374 61.1328 34.7734 63.6328 33.6601 65.9179C32.4687 68.3398 32.8788 70.8008 34.7343 72.539C37.4296 75.0586 41.4726 75.4883 46.6484 73.8086C50.3398 72.5976 55.6132 69.375 58.3867 66.6211C60.2031 64.8047 60.9062 63.5937 61.0624 62.1093C61.1796 60.8984 60.8671 60.0195 59.832 58.6328C58.914 57.3633 57.957 56.6797 56.6093 56.3281C55.2226 55.9375 51.9609 55.9961 49.7929 56.4453ZM56.1406 72.8711C52.2538 75.4883 48.1523 77.3047 44.6367 77.9687C43.0937 78.2617 43.0156 78.457 43.9726 79.7265C44.6952 80.6836 46.1406 81.7187 47.1952 82.0508C47.5859 82.1679 48.8554 82.3242 50.0077 82.3633C52.6249 82.4804 54.4218 82.1289 56.6679 81.0156C59.9296 79.3945 62.9374 75.5468 63.1913 72.6562C63.3281 71.2304 62.8984 69.9609 62.039 69.2383L61.4531 68.75L59.9687 70.039C59.1484 70.7422 57.4296 72.0312 56.1406 72.8711Z" fill="white"/>
</g>
<defs>
<clipPath id="clip0_2657_12">
<rect width="100" height="100" fill="white" transform="matrix(-1 0 0 1 100.75 0)"/>
</clipPath>
</defs>
</svg>
